<svg version="1.1" xmlns="http://www.w3.org/2000/svg" xmlns:xlink="http://www.w3.org/1999/xlink" width="48" height="48"><defs><linearGradient x1="8.44493" y1="8.44322" x2="73.33248" y2="73.33425" gradientUnits="userSpaceOnUse" id="color-1"><stop offset="0" stop-color="#000000" stop-opacity="0.1"></stop><stop offset="1" stop-color="#000000" stop-opacity="0"></stop></linearGradient><filter id="dropshadow-base"><feColorMatrix type="matrix" values="0 0 0 0 0  0 0 0 0 0  0 0 0 0 0  0 0 0 .8 0"></feColorMatrix> <feOffset dx="0" dy="1"></feOffset> <feGaussianBlur stdDeviation="1"></feGaussianBlur> <feComposite in="SourceGraphic"></feComposite></filter><filter id="dropshadow-banner" x="-10%" y="-10%" width="120%" height="130%"><feColorMatrix type="matrix" values="0 0 0 0 0  0 0 0 0 0  0 0 0 0 0  0 0 0 .4 0"></feColorMatrix> <feOffset dx="0" dy="1"></feOffset> <feGaussianBlur stdDeviation="0.5"></feGaussianBlur> <feComposite in="SourceGraphic"></feComposite></filter></defs><g fill="none" fill-rule="nonzero" stroke="none" stroke-width="none" stroke-linecap="butt" stroke-linejoin="miter" stroke-miterlimit="10" stroke-dasharray="" stroke-dashoffset="0" font-family="none" font-weight="none" font-size="none" text-anchor="none" style="mix-blend-mode: normal"><path d="M2,24c0,-12.15026 9.84974,-22 22,-22c12.15026,0 22,9.84974 22,22c0,12.15026 -9.84974,22 -22,22c-12.15026,0 -22,-9.84974 -22,-22z" id="base 1 5" fill="#4b4b4b" stroke-width="1"></path><path d="M32.69394,12.1448c0.94165,-0.55676 1.87847,-1.12079 2.82253,-1.67512l0.00727,-0.00968l10.22872,10.22872c0.16303,1.08002 0.24755,2.18578 0.24755,3.31128c0,12.15026 -9.84974,22 -22,22c-1.18545,0 -2.349,-0.09376 -3.48365,-0.27427l-8.08851,-8.08851c0,-1.39432 0,-2.78622 0,-4.18054c-0.00484,-0.02421 0.00968,-0.04599 0.03147,-0.05325c0.00175,-0.00067 0.0035,-0.00134 0.00524,-0.00202l-0.0004,-0.0004c0.58823,-0.63906 1.18614,-1.27086 1.77921,-1.90751c0.22624,-0.24174 0.45244,-0.48346 0.67862,-0.72519c-2.09322,-2.0934 -4.18664,-4.18682 -6.28004,-6.28022l-0.00008,-0.00008c-0.13313,-0.13556 -0.20575,-0.3268 -0.19608,-0.51319c0.00243,-0.18397 0.08956,-0.36068 0.22028,-0.48655c4.94307,-4.94307 9.88371,-9.88371 14.82678,-14.82678c0.09683,-0.09925 0.22028,-0.17187 0.35585,-0.20092l0.00002,-0.00006c0.23163,-0.05492 0.48444,0.02442 0.65157,0.19155l5.24667,5.24667c0.98236,-0.58457 1.96472,-1.1692 2.94699,-1.75391z" fill="url(#color-1)" stroke-width="1"></path><path transform="translate(-13.33628,-13.33628) scale(1.55568,1.55568)" d="M23.90275,14.0111c0.15094,-0.03579 0.31588,0.01712 0.42324,0.1276c1.12279,1.12279 2.24538,2.24557 3.36791,3.36829c0.63156,-0.37582 1.26312,-0.75168 1.89462,-1.12759c0.6053,-0.35789 1.20749,-0.72045 1.81434,-1.07678l0.00467,-0.00622c0,0.6831 0,1.3662 0,2.04931c-0.19295,0.19295 -0.38434,0.38901 -0.57885,0.58196c-0.17428,0.18206 -0.35633,0.35478 -0.52905,0.53528c-0.27433,0.27568 -0.54839,0.55163 -0.82234,0.82769c1.4488,1.44894 2.89762,2.89771 4.34677,4.34615c0.05135,0.04979 0.10114,0.1027 0.13071,0.16961c0.07469,0.15094 0.05291,0.34233 -0.05291,0.47304c-0.04046,0.04979 -0.08869,0.09181 -0.13226,0.13693c-3.12453,3.12453 -6.24906,6.24906 -9.37515,9.37515c-0.05602,0.05446 -0.10737,0.11826 -0.17894,0.15249c-0.13226,0.07469 -0.30032,0.07469 -0.43258,0c-0.06691,-0.03268 -0.11515,-0.09025 -0.1665,-0.14004c-1.15666,-1.15723 -2.31353,-2.31446 -3.47053,-3.47169c-1.19488,0.81132 -2.38972,1.62263 -3.58456,2.43381c0,-0.89628 0,-1.791 0,-2.68728c-0.00311,-0.01556 0.00622,-0.02956 0.02023,-0.03423c0.05233,-0.01988 0.09761,-0.05173 0.14296,-0.08324c-0.04477,0.03054 -0.08961,0.06118 -0.13985,0.08168c0.37812,-0.41079 0.76246,-0.81692 1.14369,-1.22616c0.14543,-0.15539 0.29083,-0.31077 0.43622,-0.46616c-1.34555,-1.34567 -2.69123,-2.69135 -4.0369,-4.03702c-0.08558,-0.08714 -0.13226,-0.21007 -0.12604,-0.32988c0.00156,-0.11826 0.05757,-0.23185 0.1416,-0.31276c3.17744,-3.17744 6.35331,-6.35331 9.53075,-9.53075c0.06224,-0.0638 0.1416,-0.11048 0.22874,-0.12915zM28.44108,18.25428c0.07441,-0.07384 0.1487,-0.14771 0.2227,-0.22172c-0.07414,0.07413 -0.1484,0.14798 -0.2227,0.22171c0,0 0,0 0,0z" fill="none" stroke-width="0"></path><g stroke-width="1"><g id="Layer_1 1"><g fill="#f8f6f7"><path d="M23.84871,8.46049c0.23481,-0.05568 0.4914,0.02663 0.65843,0.1985c4.92612,4.92612 9.84982,9.85224 14.77594,14.77594c0.07988,0.07746 0.15735,0.15977 0.20334,0.26386c0.11619,0.23481 0.0823,0.53255 -0.0823,0.73589c-0.06294,0.07746 -0.13798,0.14282 -0.20576,0.21302c-4.86076,4.86076 -9.72153,9.72153 -14.58471,14.58471c-0.08715,0.08472 -0.16703,0.18397 -0.27838,0.23723c-0.20576,0.11619 -0.46719,0.11619 -0.67295,0c-0.10409,-0.05083 -0.17913,-0.1404 -0.25901,-0.21786c-4.91886,-4.92128 -9.84014,-9.84256 -14.76142,-14.76384c-0.13314,-0.13556 -0.20576,-0.32679 -0.19608,-0.51319c0.00242,-0.18397 0.08957,-0.36068 0.22028,-0.48656c4.94307,-4.94307 9.88371,-9.88371 14.82678,-14.82678c0.09683,-0.09925 0.22028,-0.17187 0.35584,-0.20092z"></path></g><g fill="#fda819"><path d="M35.51648,10.46967l0.00726,-0.00968c0,1.06269 0,2.12537 0,3.18806c-0.30017,0.30017 -0.59791,0.60517 -0.9005,0.90534c-0.27112,0.28322 -0.55434,0.55192 -0.82304,0.83272c-1.46694,1.47421 -2.92905,2.95325 -4.39599,4.42746c-0.83514,-0.25417 -1.66786,-0.50835 -2.503,-0.76494c0.19608,-0.20334 0.40184,-0.39457 0.59791,-0.59791c0.29533,-0.29775 0.59791,-0.58823 0.89324,-0.88598c0.21544,-0.21786 0.43331,-0.43331 0.65117,-0.64633c0.29533,-0.2929 0.58581,-0.59065 0.88355,-0.87871c0.48414,-0.48898 0.97796,-0.9707 1.4621,-1.45726c0.16461,-0.16945 0.33648,-0.32921 0.50108,-0.49624c1.08689,-1.08689 2.18105,-2.16653 3.26794,-3.25342c0.11861,-0.12588 0.25417,-0.23239 0.35826,-0.3631z"></path><path d="M32.01857,20.60997c-0.00242,1.24424 0,2.48606 -0.00242,3.7303c-6.53104,4.42988 -13.05967,8.8646 -19.58829,13.2969c0,-1.39432 0,-2.78622 0,-4.18055c-0.00484,-0.02421 0.00968,-0.04599 0.03147,-0.05326c0.12103,-0.04599 0.21786,-0.13314 0.32679,-0.1985c6.22604,-4.07404 12.45207,-8.15049 18.67811,-12.22695c0.18397,-0.12346 0.37521,-0.23723 0.55434,-0.36795z"></path><path d="M17.02718,21.46448c2.19315,0.00726 4.38631,-0.00242 6.57946,0.00484c-0.20092,0.22997 -0.41394,0.44541 -0.62212,0.67053c-0.97312,1.0409 -1.94624,2.0818 -2.91936,3.1227c-1.01185,0 -2.0237,0 -3.03798,0c0,-1.2636 0.00242,-2.52963 0,-3.79808z"></path></g><path d="M17.02718,22.18101v-0.71653h6.57946v0.71653z" fill="#f28a00"></path><path d="M12.42785,33.4542l19.58829,-11.98972l0.00242,-0.85451l-10.03864,6.42211z" fill="#f28a00"></path><g fill="#f2ba58"><path d="M32.69394,12.14479c0.94165,-0.55676 1.87846,-1.12078 2.82253,-1.67512c-0.10409,0.13314 -0.23965,0.23965 -0.35584,0.36068c-1.08689,1.08689 -2.18105,2.16895 -3.26794,3.25342c-0.16461,0.16945 -0.33648,0.32921 -0.50108,0.49624c-0.48656,0.48898 -0.97796,0.96828 -1.4621,1.45726c-0.29775,0.28806 -0.58823,0.58581 -0.88355,0.87871c-0.22028,0.21302 -0.43573,0.43088 -0.65117,0.64633c-0.29533,0.29775 -0.59791,0.58823 -0.89324,0.88598c-0.19608,0.20092 -0.40426,0.39457 -0.59791,0.59791c0.83272,0.25659 1.66786,0.51077 2.503,0.76494c0.87145,0.26628 1.74048,0.53497 2.61435,0.79641c-0.17913,0.13072 -0.36795,0.24449 -0.55192,0.36795c-6.22604,4.07646 -12.45207,8.15049 -18.67811,12.22695c-0.10893,0.06536 -0.20818,0.15008 -0.32679,0.1985c0.58823,-0.63906 1.18614,-1.27087 1.77921,-1.90751c1.94382,-2.07696 3.88522,-4.15392 5.82904,-6.23088c0.97312,-1.0409 1.94624,-2.0818 2.91936,-3.1227c0.20576,-0.22512 0.4212,-0.44057 0.62212,-0.67053c-2.19315,-0.00726 -4.38631,0.00242 -6.57946,-0.00484c5.21418,-3.10576 10.43805,-6.21151 15.6595,-9.31969z"></path></g><path d="M35.51648,10.46967l-8.61527,8.62979l0.71411,0.18155z" fill="#f28a00"></path></g></g><path d="M2,24c0,-12.15026 9.84974,-22 22,-22c12.15026,0 22,9.84974 22,22c0,12.15026 -9.84974,22 -22,22c-12.15026,0 -22,-9.84974 -22,-22z" id="base 1 1 1" fill="none" stroke-width="1"></path><g fill="#000000" stroke-width="1" font-family="Roboto, sans-serif" font-weight="400" font-size="14" text-anchor="start"><g id="Layer_1 1 1"><g></g><g></g><g></g></g></g><rect x="2" y="2" width="44" height="22" fill="none" stroke-width="1"></rect><path d="M2,24v-22h44v22z" fill="none" stroke-width="1"></path><path d="M2,24v-22h44v22z" fill="none" stroke-width="1"></path><path d="M2,24v-22h44v22z" fill="none" stroke-width="1"></path><path d="M2,24v-22h44v22z" fill="none" stroke-width="1"></path></g></svg>