<svg xmlns="http://www.w3.org/2000/svg" viewBox="0 0 72.767 72.766">
	<path d="M72.163,34.225C71.6,33.292,58.086,11.352,37.48,11.352h-2.195c-20.605,0-34.117,21.94-34.681,22.873
				c-0.805,1.323-0.805,2.993,0,4.316c0.564,0.94,14.076,22.873,34.682,22.873h2.195c20.604,0,34.118-21.933,34.683-22.873
				C72.968,37.218,72.968,35.548,72.163,34.225z M37.48,53.141h-2.195c-12.696,0-22.625-11.793-26.242-16.758
				c3.621-4.971,13.546-16.758,26.242-16.758h2.195c12.7,0,22.632,11.802,26.246,16.766C60.125,41.363,50.237,53.141,37.48,53.141z
				 M36.383,29.66c-3.666,0-6.633,3.016-6.633,6.724c0,3.716,2.967,6.725,6.633,6.725c3.664,0,6.635-3.009,6.635-6.725
				C43.018,32.675,40.047,29.66,36.383,29.66z" />
</svg>
