<?xml version="1.0" encoding="UTF-8" standalone="no"?>
<svg
   xmlns:dc="http://purl.org/dc/elements/1.1/"
   xmlns:cc="http://creativecommons.org/ns#"
   xmlns:rdf="http://www.w3.org/1999/02/22-rdf-syntax-ns#"
   xmlns:svg="http://www.w3.org/2000/svg"
   xmlns="http://www.w3.org/2000/svg"
   xmlns:xlink="http://www.w3.org/1999/xlink"
   xmlns:sodipodi="http://sodipodi.sourceforge.net/DTD/sodipodi-0.dtd"
   xmlns:inkscape="http://www.inkscape.org/namespaces/inkscape"
   version="1.1"
   id="svg2"
   width="340"
   height="693"
   viewBox="0 0 340 693"
   sodipodi:docname="icons.svg"
   inkscape:version="1.0.2 (e86c870879, 2021-01-15)">
  <metadata
     id="metadata8">
    <rdf:RDF>
      <cc:Work
         rdf:about="">
        <dc:format>image/svg+xml</dc:format>
        <dc:type
           rdf:resource="http://purl.org/dc/dcmitype/StillImage" />
        <dc:title></dc:title>
      </cc:Work>
    </rdf:RDF>
  </metadata>
  <defs
     id="defs6" />
  <sodipodi:namedview
     pagecolor="#ffffff"
     bordercolor="#666666"
     borderopacity="1"
     objecttolerance="10"
     gridtolerance="10"
     guidetolerance="10"
     inkscape:pageopacity="0"
     inkscape:pageshadow="2"
     inkscape:window-width="1920"
     inkscape:window-height="1016"
     id="namedview4"
     showgrid="false"
     inkscape:zoom="1.1428571"
     inkscape:cx="415.26209"
     inkscape:cy="608.75176"
     inkscape:window-x="1366"
     inkscape:window-y="0"
     inkscape:window-maximized="1"
     inkscape:current-layer="g10" />
  <g
     inkscape:groupmode="layer"
     inkscape:label="Image"
     id="g10">
    <image
       sodipodi:absref="/home/fathony/Documents/X2NIE/webamp/packages/webamp-modern/assets/skins/QuickTime4/window/videoavs.png"
       xlink:href="videoavs.png"
       id="image12"
       preserveAspectRatio="none"
       height="693"
       width="340" />
    <g
       id="g903"
       transform="matrix(0.08717529,0,0,0.08717529,50.681437,458.08334)"
       inkscape:export-filename="/home/fathony/Documents/X2NIE/webamp/packages/webamp-modern/assets/skins/QuickTime4/thinger/vis.png"
       inkscape:export-xdpi="96"
       inkscape:export-ydpi="96">
      <path
         style="fill:#f99930;fill-opacity:1;stroke:none"
         d="m -344.40278,392.72222 c -6.77111,0 -12.22222,5.4511 -12.22222,12.22222 v 24.44444 c 0,6.77111 5.45111,12.22222 12.22222,12.22222 h 48.88889 c 6.77111,0 12.22222,-5.45111 12.22222,-12.22222 v -24.44444 c 0,-6.77112 -5.45111,-12.22222 -12.22222,-12.22222 z"
         id="path4215"
         inkscape:connector-curvature="0" />
      <path
         style="fill:#ca0a0a;fill-opacity:1;stroke:none"
         d="m -344.40278,453.83332 c -6.77111,0 -12.22222,5.45113 -12.22222,12.22225 v 24.44444 c 0,6.77109 5.45111,12.22222 12.22222,12.22222 h 48.88889 c 6.77111,0 12.22222,-5.45113 12.22222,-12.22222 v -24.44444 c 0,-6.77112 -5.45111,-12.22225 -12.22222,-12.22225 z"
         id="path3729"
         inkscape:connector-curvature="0" />
      <path
         style="fill:#c83771;fill-opacity:1;stroke:none"
         d="m -258.84723,148.27777 c -6.77111,0 -12.22222,5.45111 -12.22222,12.22222 v 24.44445 c 0,6.77111 5.45111,12.22222 12.22222,12.22222 h 48.88889 c 6.77111,0 12.22222,-5.45111 12.22222,-12.22222 v -24.44445 c 0,-6.77111 -5.45111,-12.22222 -12.22222,-12.22222 z"
         id="path4257"
         inkscape:connector-curvature="0" />
      <path
         style="fill:#8e65cd;fill-opacity:1;stroke:none"
         d="m -258.84723,209.38888 c -6.77111,0 -12.22222,5.45113 -12.22222,12.22224 v 24.44444 c 0,6.7711 5.45111,12.22222 12.22222,12.22222 h 48.88889 c 6.77111,0 12.22222,-5.45112 12.22222,-12.22222 v -24.44444 c 0,-6.77111 -5.45111,-12.22224 -12.22222,-12.22224 z"
         id="path4255"
         inkscape:connector-curvature="0" />
      <path
         style="fill:#3ea6c1;fill-opacity:1;stroke:none"
         d="m -258.84723,270.50001 c -6.77111,0 -12.22222,5.4511 -12.22222,12.22222 v 24.44444 c 0,6.77111 5.45111,12.22222 12.22222,12.22222 h 48.88889 c 6.77111,0 12.22222,-5.45111 12.22222,-12.22222 v -24.44444 c 0,-6.77112 -5.45111,-12.22222 -12.22222,-12.22222 z"
         id="path4253"
         inkscape:connector-curvature="0" />
      <path
         style="fill:#a6ce06;fill-opacity:1;stroke:none"
         d="m -258.84723,331.61111 c -6.77111,0 -12.22222,5.45111 -12.22222,12.22222 v 24.44444 c 0,6.77112 5.45111,12.22223 12.22222,12.22223 h 48.88889 c 6.77111,0 12.22222,-5.45111 12.22222,-12.22223 v -24.44444 c 0,-6.77111 -5.45111,-12.22222 -12.22222,-12.22222 z"
         id="path4251"
         inkscape:connector-curvature="0" />
      <path
         style="fill:#f99930;fill-opacity:1;stroke:none"
         d="m -258.84723,392.72222 c -6.77111,0 -12.22222,5.4511 -12.22222,12.22222 v 24.44444 c 0,6.77111 5.45111,12.22222 12.22222,12.22222 h 48.88889 c 6.77111,0 12.22222,-5.45111 12.22222,-12.22222 v -24.44444 c 0,-6.77112 -5.45111,-12.22222 -12.22222,-12.22222 z"
         id="path4249"
         inkscape:connector-curvature="0" />
      <path
         style="fill:#ca0a0a;fill-opacity:1;stroke:none"
         d="m -258.84723,453.83332 c -6.77111,0 -12.22222,5.45113 -12.22222,12.22225 v 24.44444 c 0,6.77109 5.45111,12.22222 12.22222,12.22222 h 48.88889 c 6.77111,0 12.22222,-5.45113 12.22222,-12.22222 v -24.44444 c 0,-6.77112 -5.45111,-12.22225 -12.22222,-12.22225 z"
         id="path3731"
         inkscape:connector-curvature="0" />
      <path
         style="fill:#a6ce06;fill-opacity:1;stroke:none"
         d="m -173.29168,331.61111 c -6.77109,0 -12.22222,5.45111 -12.22222,12.22222 v 24.44444 c 0,6.77112 5.45113,12.22223 12.22222,12.22223 h 48.88891 c 6.77109,0 12.22222,-5.45111 12.22222,-12.22223 v -24.44444 c 0,-6.77111 -5.45113,-12.22222 -12.22222,-12.22222 z"
         id="path4183"
         inkscape:connector-curvature="0" />
      <path
         style="fill:#f99930;fill-opacity:1;stroke:none"
         d="m -173.29168,392.72222 c -6.77109,0 -12.22222,5.4511 -12.22222,12.22222 v 24.44444 c 0,6.77111 5.45113,12.22222 12.22222,12.22222 h 48.88891 c 6.77109,0 12.22222,-5.45111 12.22222,-12.22222 v -24.44444 c 0,-6.77112 -5.45113,-12.22222 -12.22222,-12.22222 z"
         id="path4181"
         inkscape:connector-curvature="0" />
      <path
         style="fill:#ca0a0a;fill-opacity:1;stroke:none"
         d="m -173.29168,453.83332 c -6.77109,0 -12.22222,5.45113 -12.22222,12.22225 v 24.44444 c 0,6.77109 5.45113,12.22222 12.22222,12.22222 h 48.88891 c 6.77109,0 12.22222,-5.45113 12.22222,-12.22222 v -24.44444 c 0,-6.77112 -5.45113,-12.22225 -12.22222,-12.22225 z"
         id="path3733"
         inkscape:connector-curvature="0" />
      <path
         style="fill:#3ea6c1;fill-opacity:1;stroke:none"
         d="m -87.73611,270.50001 c -6.77111,0 -12.22222,5.4511 -12.22222,12.22222 v 24.44444 c 0,6.77111 5.45111,12.22222 12.22222,12.22222 h 48.88889 c 6.77111,0 12.22222,-5.45111 12.22222,-12.22222 v -24.44444 c 0,-6.77112 -5.45111,-12.22222 -12.22222,-12.22222 z"
         id="path4287"
         inkscape:connector-curvature="0" />
      <path
         style="fill:#a6ce06;fill-opacity:1;stroke:none"
         d="m -87.73611,331.61111 c -6.77111,0 -12.22222,5.45111 -12.22222,12.22222 v 24.44444 c 0,6.77112 5.45111,12.22223 12.22222,12.22223 h 48.88889 c 6.77111,0 12.22222,-5.45111 12.22222,-12.22223 v -24.44444 c 0,-6.77111 -5.45111,-12.22222 -12.22222,-12.22222 z"
         id="path4285"
         inkscape:connector-curvature="0" />
      <path
         style="fill:#f99930;fill-opacity:1;stroke:none"
         d="m -87.73611,392.72222 c -6.77111,0 -12.22222,5.4511 -12.22222,12.22222 v 24.44444 c 0,6.77111 5.45111,12.22222 12.22222,12.22222 h 48.88889 c 6.77111,0 12.22222,-5.45111 12.22222,-12.22222 v -24.44444 c 0,-6.77112 -5.45111,-12.22222 -12.22222,-12.22222 z"
         id="path4283"
         inkscape:connector-curvature="0" />
      <path
         style="fill:#ca0a0a;fill-opacity:1;stroke:none"
         d="m -87.73611,453.83332 c -6.77111,0 -12.22222,5.45113 -12.22222,12.22225 v 24.44444 c 0,6.77109 5.45111,12.22222 12.22222,12.22222 h 48.88889 c 6.77111,0 12.22222,-5.45113 12.22222,-12.22222 v -24.44444 c 0,-6.77112 -5.45111,-12.22225 -12.22222,-12.22225 z"
         id="path3735"
         inkscape:connector-curvature="0" />
    </g>
  </g>
</svg>
